<svg width="30" height="20" viewBox="0 0 30 20" fill="none" xmlns="http://www.w3.org/2000/svg">
<path d="M13.2363 20C12.5145 19.9761 10.998 19.3423 10.998 19.3203C8.558 18.2964 3.85078 15.2066 1.67676 13.0039L1.04492 12.3428C0.879521 12.1636 0.69348 11.9514 0.578126 11.7861C0.192773 11.2758 8.17914e-07 10.6442 8.73118e-07 10.0127C3.33597e-05 9.30778 0.216922 8.65225 0.625978 8.11621L1.27442 7.41602L1.41992 7.2666C3.39263 5.12781 8.54377 1.62989 11.2383 0.559571L11.6445 0.404298C12.1341 0.228829 12.8204 0.0192787 13.2363 1.15716e-06C13.7654 3.11076e-06 14.2711 0.122901 14.7529 0.365236C15.3547 0.704877 15.8342 1.24156 16.0996 1.87305C16.2687 2.31028 16.5342 3.62262 16.5342 3.64649C16.7775 4.96996 16.9192 7.05802 16.9395 9.39844L16.9414 9.98926C16.9414 12.4419 16.7984 14.6781 16.582 16.1357L16.3926 17.042C16.2871 17.522 16.1484 18.0685 16.0039 18.3477C15.4749 19.3683 14.4401 19.9999 13.333 20L13.2363 20ZM21.3291 11.9854C20.2438 11.9853 19.3634 11.0968 19.3633 10.001C19.3633 8.90316 20.2437 8.01568 21.3291 8.01563L27.4941 7.47071C28.8778 7.47071 30 8.60388 30 10.001C29.9998 11.3979 28.8777 12.5303 27.4941 12.5303L21.3291 11.9854Z" fill="#392919"/>
</svg>
