<svg width="189" height="108" viewBox="0 0 189 108" fill="none" xmlns="http://www.w3.org/2000/svg">
<path d="M53.0177 4.29693C53.5451 4.76452 53.5533 2.88179 52.1485 1.96101C50.5851 0.93313 48.7807 0.037078 46.9577 0.0288385L40.3765 0L37.8759 0.337822C33.0991 0.982567 28.5736 2.3318 23.9328 3.69544C23.9142 3.06512 23.7865 2.59546 23.5249 2.26794C23.1995 1.85802 22.4023 1.75709 22.0872 2.26794C21.6937 2.90444 21.77 3.6563 21.5125 4.437L7.46229 9.44665L0.629799 12.0998C0.246668 12.5282 -0.144701 12.9526 0.0530433 13.552C0.104539 13.69 0.522687 14.1391 0.821364 14.0011C4.65679 12.2275 8.47162 10.7547 12.4533 9.3416L21.3106 6.20027L21.2777 10.1367L21.0696 17.7398L20.8801 24.1316L20.7359 29.5017L15.9159 29.6624L11.9404 29.9879L8.66112 30.3999C7.8928 30.4967 7.02561 30.4781 6.42207 30.9931C6.86906 31.9983 7.81453 31.7161 8.59109 31.9798C13.3988 33.6153 17.4834 36.8267 20.2148 41.0701C20.7936 41.9682 21.1808 42.9817 21.1747 44.0178C21.1582 46.982 21.2591 49.8473 21.9759 52.694C22.1263 53.2914 22.4023 53.7199 22.9729 53.724C23.527 53.7281 23.8298 53.277 23.9513 52.694C24.5981 49.6042 23.8195 46.6874 23.0594 43.6697L22.8225 38.3304L22.6577 31.1332C23.1645 30.9601 23.457 30.9066 23.9122 30.9045L36.8727 30.8201C37.8656 30.8139 38.7369 30.5131 39.7894 30.7171C40.0964 30.7768 40.8585 30.61 40.7946 30.2557C40.6814 29.6315 39.8739 29.4111 39.2992 29.4111L22.6701 29.372L22.8019 18.8006L23.0368 12.4747C23.183 10.283 23.1912 7.88732 23.5146 5.64616C28.8249 3.97353 34.164 2.44921 39.7482 1.68705C40.6093 1.56964 41.4167 1.57376 42.2551 1.50372C45.5055 1.23181 49.1617 1.28537 51.8766 2.89415C52.3792 3.19283 52.5254 3.84993 53.0239 4.29281L53.0177 4.29693ZM20.2539 38.9072C18.4186 36.7526 16.3814 34.9646 14.1362 33.4238L11.4604 31.9118L20.7174 31.2774C20.9419 33.949 20.9707 36.7196 20.9893 39.4016C20.5443 39.5787 20.4887 39.1812 20.256 38.9072H20.2539Z" fill="#DDA864"/>
<path d="M188.413 80.8033C188.349 80.4943 187.983 80.2389 187.631 80.4263C185.14 81.7467 182.631 82.8055 180.009 83.7489L176.196 85.1208C172.567 86.4268 168.878 87.3455 164.98 87.6112C162.568 87.776 159.886 86.5916 159.619 84.0105C161.782 83.5738 164.231 82.5501 164.715 80.6014C164.9 79.8537 164.342 78.9473 163.891 78.5642C162.224 77.1552 159.135 78.5065 158.109 81.0443C157.645 82.1917 157.052 82.9497 156.218 83.8808C154.856 85.403 153.058 86.295 151.18 87.0736C148.463 88.2004 144.326 88.0994 143.237 85.1249C145.22 84.9519 146.912 83.9549 147.845 82.2905C148.327 81.4316 147.999 80.5952 147.356 79.969C146.786 79.4129 146.133 78.8814 145.21 79.0668C142.207 79.6683 142.615 81.9609 140.085 81.9836L132.973 82.0516C132.721 81.001 132.991 80.0576 133.047 79.0524L133.22 75.9708C133.317 74.259 133.681 72.8892 134.159 71.2784C135.173 67.8631 135.426 64.2933 135.566 60.7276C135.601 59.8645 135.098 58.8922 134.441 58.505C133.935 58.2063 133.475 58.7501 133.383 59.2301C132.583 63.3313 132.313 67.3749 131.869 71.5358C131.796 72.2197 131.774 73.1961 131.465 73.7955C129.29 77.7361 125.506 81.6355 120.947 81.9589C120.741 81.3677 121.168 81.139 121.382 80.7641L124.167 75.8966C126.466 71.1692 128.758 63.6609 128.293 58.4885C128.159 57.0095 127.434 55.6314 126.155 54.7972C123.926 53.345 120.902 56.0846 119.874 59.504C118.931 62.6351 118.325 67.0288 118.278 70.2711L118.136 80.2821C118.134 80.4737 118.23 80.7848 118.146 80.931C118.063 81.0731 117.81 81.2214 117.516 81.2235L110.844 81.2462C109.787 81.2503 107.274 77.5548 104.312 80.5829C101.853 83.0959 101.96 86.6328 104.114 88.0891C105.295 88.8863 106.844 89.1273 108.217 88.4166C110.275 87.3517 111.447 85.0714 110.835 82.7602L113.645 82.7293L116.519 82.377C116.916 82.9518 117.46 83.2195 118.154 83.234L118.241 93.2553L118.436 95.9394L118.702 98.3206C119.093 101.841 119.72 106.183 122.756 107.794C123.065 107.883 123.738 108 124.093 107.85C125.382 107.302 125.967 106.055 126.272 104.795C127.844 98.3041 126.389 90.0728 122.016 84.9354C121.621 84.4699 121.04 84.2515 120.844 83.4688C124.991 83.1371 128.276 80.657 130.76 77.3921C131.65 77.2582 130.822 79.4046 130.894 81.6478C130.439 81.652 129.436 81.6643 129.341 82.136C129.215 82.7561 130.134 83.1474 130.736 83.3081L130.804 94.0834L130.997 96.3555L131.747 101.139C132.05 103.062 132.686 104.896 133.817 106.488C134.266 107.12 135.024 107.504 135.7 107.831C135.953 107.955 136.511 107.926 136.759 107.841C137.465 107.53 138.332 106.902 138.647 106.051C140.378 101.371 139.873 94.7158 138.065 90.1057L136.474 86.9562L134.925 84.7377C134.75 84.4864 134.114 84.371 134.283 83.6686C136.413 83.6974 138.794 84.0126 141.21 83.1413C141.132 87.2569 145 89.2385 149.136 88.9996C152.553 88.8039 155.34 87.0448 157.619 84.2021C158.373 86.0169 159.349 87.2755 161.05 87.9573C162.859 88.6824 164.824 89.0552 166.779 88.8904C170.221 88.602 173.442 87.9841 176.709 86.8964C180.773 85.5431 184.607 83.8643 188.1 81.4048C188.38 81.207 188.457 81.0093 188.415 80.8115L188.413 80.8033ZM160.045 81.4892C160.228 81.3347 160.317 81.1267 160.443 80.9104C160.921 80.0803 161.928 79.2419 162.995 79.625C163.343 80.6612 161.514 81.8023 159.994 82.3297C159.769 82.3132 159.851 81.6128 160.043 81.4872L160.045 81.4892ZM146.335 80.8774C146.706 81.6726 144.951 83.0547 143.406 83.5903C143.511 81.2956 146.034 80.2327 146.335 80.8774ZM107.993 86.4C107.358 87.1498 106.421 87.6504 105.529 87.362C103.809 86.8079 103.851 83.5471 105.552 81.6108C106.695 82.1402 107.577 82.41 108.722 82.618C109.048 83.8663 108.895 85.333 107.993 86.3979V86.4ZM122.095 87.327C123.547 89.3251 124.704 93.0452 124.882 95.4965C125.12 98.8108 125.353 104.084 123.475 106.101C122.185 107.485 120.867 102.556 120.513 99.7996C119.886 94.9485 119.961 90.1469 119.994 85.1517C121.147 85.5637 121.518 86.536 122.095 87.329V87.327ZM119.973 79.9979C119.903 74.7657 119.936 69.8076 120.459 64.7691C120.801 61.4671 122.28 55.6706 125.193 55.8374C125.949 55.8807 126.377 57.1661 126.455 57.8293C126.853 61.2529 126.332 64.4704 125.541 67.8095C124.832 70.8025 123.703 73.5607 122.27 76.3725C121.592 77.7011 121.141 78.9617 119.973 79.9999V79.9979ZM137.7 95.2617C138.091 98.3886 138.108 101.357 137.22 104.434C137.008 105.17 136.759 105.903 135.974 106.486C134.429 105.39 133.685 103.685 133.438 101.907L132.783 97.2021C132.468 93.0452 132.532 88.9872 132.798 84.7233C135.856 87.5494 137.204 91.2984 137.7 95.2637V95.2617Z" fill="#DDA864"/>
<path d="M87.7179 13.9743C93.71 11.3562 99.6959 9.08617 105.888 7.0407C106.67 6.78116 107.266 6.34446 108.23 6.34652C108.434 7.11486 108.182 7.97589 108.156 8.83075L107.997 13.6406L107.789 22.0738L107.632 29.4708L102.654 29.683L99.5908 29.8808C98.392 29.959 97.3209 30.1012 96.1179 30.3422C95.1518 30.5337 92.5091 30.3401 93.3042 31.3186C93.4175 31.4566 93.6523 31.6646 93.9304 31.7038C95.6689 31.9489 97.0819 32.5627 98.633 33.3846C102.044 35.1912 105.031 37.8422 107.035 41.1339C107.902 42.5573 108.147 44.0693 108.088 45.6822C107.993 48.3147 108.246 53.6107 109.674 53.7466C111.371 53.9094 111.375 48.2241 110.401 45.3093C109.857 43.8612 109.832 42.4646 109.787 40.9382C109.688 37.5806 109.497 34.3301 109.647 30.9189L125.825 30.851C126.562 30.8468 127.217 30.6656 127.829 30.2969C127.376 29.613 126.748 29.4111 126.014 29.409L109.575 29.3699L109.684 18.0199L109.919 12.6168L110.283 5.66882C117.973 3.36792 126.253 0.846615 134.143 1.5305C136.464 1.73237 139.255 2.41625 139.834 4.60385C141.086 3.89731 139.329 1.89922 137.916 1.26683C136.513 0.638566 135.07 0.0308984 133.51 0.0247188L127.275 0.00411987C121.897 0.541751 116.628 2.01457 111.365 3.56979C111.118 3.64189 110.936 3.65836 110.8 3.56979C110.687 3.49563 110.619 3.25257 110.638 3.0507C110.697 2.34415 110.244 1.94866 109.67 1.93836C108.421 1.9157 108.877 3.61305 108.465 4.29899C108.261 4.63475 107.737 4.71303 107.293 4.86752L100.404 7.26523C96.0458 8.78337 91.7964 10.2541 87.5572 12.1163C87.1185 12.3099 86.793 12.6601 86.7745 13.0391C86.76 13.3728 87.2709 14.1762 87.7138 13.9805L87.7179 13.9743ZM107.847 39.6096C106.881 39.0967 106.607 38.3016 106.083 37.6424C103.809 35.3333 101.41 33.502 98.4208 31.8603L107.715 31.2568C107.933 34.1077 107.863 36.7855 107.847 39.6076V39.6096Z" fill="#DDA864"/>
<path d="M98.2435 81.5284C97.5987 85.3701 95.8582 88.7421 93.3843 91.6795C92.8776 92.2831 92.3976 92.6868 91.8312 93.2285C88.4407 96.4564 84.4055 98.8232 79.7255 99.608C75.0043 100.401 70.3141 99.0539 66.9771 95.721C65.3725 94.1184 64.2499 92.386 63.2097 90.3756C61.4444 86.9582 60.8738 83.1186 60.948 79.2625C60.983 77.456 61.0613 75.8596 61.4156 74.119C62.9399 66.6045 67.2779 59.9119 74.1083 56.3339C77.1445 54.7436 81.4125 54.1257 84.7289 54.8631C90.1401 56.0681 91.0855 61.0634 90.3934 66.3058C89.6416 72.0096 86.9246 77.3118 82.7988 81.2791C82.5743 81.4954 82.5763 81.6169 82.6731 81.7611C83.0274 82.2947 85.0893 80.9825 85.9277 80.1338C88.2862 77.7444 89.9876 74.9965 91.0917 71.8469C92.0804 69.0248 92.8261 66.2296 92.6428 63.2304C92.3194 57.9694 89.4562 54.5541 84.2366 53.6519C78.6832 52.692 73.1072 54.3461 68.7671 58.0127C60.6781 64.8494 56.8015 76.8133 59.9325 87.0303C61.0716 90.7526 62.9028 93.9186 65.7804 96.479C68.3758 98.7882 71.3584 100.286 74.8725 100.78C80.1993 101.528 85.4168 100.298 89.8908 97.2598C94.4534 94.1617 97.8603 89.6546 98.9376 84.2309C99.4773 81.514 98.3382 80.966 98.2455 81.5263L98.2435 81.5284Z" fill="#DDA864"/>
<path d="M136.274 40.724C133.37 39.7476 134.056 28.4079 134.404 24.1955L134.927 17.8695L135.988 8.61858C136.05 8.07889 135.36 7.65043 134.979 7.60305C134.598 7.55568 134.2 8.01503 134.14 8.47439L133.18 16.0342C132.7 19.8203 132.274 23.4518 132.276 27.242V34.0768C132.484 36.2026 132.793 38.4272 133.943 40.2111C135.52 42.6603 138.557 42.7015 140.682 40.9547C142.604 39.3727 144.161 37.5394 145.342 35.2983C145.432 35.1252 145.834 34.8101 145.947 35.0696C146.598 36.5383 147.803 37.8443 149.54 38.0626C150.5 38.1842 151.587 37.7207 152.267 37.1172C152.588 36.8329 152.71 36.5466 153.268 36.6743L152.675 44.7264L152.491 48.6567L152.423 56.9662C152.419 57.5471 152.586 58.5153 153.076 58.8119C153.525 59.0838 153.958 58.2908 153.907 57.8561C153.752 56.5481 153.989 55.3925 154.036 54.1318C154.094 52.5952 154.154 51.1429 154.257 49.5012L154.419 46.8934L154.566 43.9065L155.561 31.471C155.637 30.5296 154.91 29.475 153.987 29.7675C153.354 30.0353 153.511 31.094 153.385 31.6564C152.928 33.6936 151.618 35.4548 149.812 36.4765C148.794 37.0512 147.863 36.0069 147.546 35.1108C146.94 33.4032 147.457 31.8397 148.036 30.2248C148.24 29.6562 147.344 29.2793 146.965 29.337C146.343 29.4338 146.065 29.7283 145.933 30.4431L145.488 32.8264C143.784 35.6258 141.601 38.0956 139.082 40.137C138.239 40.8188 137.209 41.0412 136.268 40.7261L136.274 40.724Z" fill="#DDA864"/>
<path d="M59.951 39.7044C60.6184 39.7394 60.3197 35.2427 65.0944 31.6708C68.3593 29.2278 69.8691 31.2465 70.2461 30.7789C70.3738 30.6203 70.483 30.2598 70.2955 30.0188C68.349 27.4892 64.6289 29.4626 62.3548 31.6337C61.8893 32.0787 61.7122 32.7893 60.8326 33.0056C60.8882 31.3598 60.7832 29.9178 59.6956 30.097C58.5874 30.2783 59.1291 31.7779 58.5297 32.3403C55.9693 34.74 51.2255 38.349 48.0987 37.5024C46.5476 37.0821 47.112 32.3052 47.9133 29.8251C48.0327 29.374 47.042 29.0362 46.6774 29.1351C45.2499 29.5203 45.2561 32.5978 45.252 34.7627C45.2478 36.872 46.4178 38.5694 48.6157 39.0349C50.1317 39.3542 51.6766 39.0761 52.9496 38.2933L55.753 36.5672L58.5688 34.4105C58.7068 36.6331 57.6893 39.5911 59.9469 39.7064L59.951 39.7044Z" fill="#DDA864"/>
<path d="M47.7279 22.3354C47.2377 22.9719 46.9534 23.8391 46.9699 24.6322C46.9843 25.3325 47.8248 26.1173 48.4509 25.7321C49.0792 25.3449 49.691 23.1182 49.0442 22.4487C48.7311 22.1253 48.0266 21.9481 47.7279 22.3354Z" fill="#DDA864"/>
<path d="M74.4896 38.5859C75.8635 39.348 77.6164 39.968 79.2972 39.8856C83.5899 39.6755 87.1287 36.8823 89.0341 33.2075L89.2545 32.6122C89.3266 32.4165 88.9064 32.0766 88.7622 32.2393C85.8661 35.494 82.2922 38.5714 77.8533 38.4602C76.0118 38.4149 73.7274 37.0224 74.23 35.6505C76.2157 35.3559 78.3312 34.0974 78.7781 32.0787C78.9965 31.0982 77.9563 30.3195 77.3445 30.0208C76.4382 29.5759 75.5668 29.6501 74.6379 30.1012C73.1795 30.8118 72.267 32.2579 72.026 33.9181C71.75 35.8174 72.749 37.6218 74.4896 38.5879V38.5859ZM74.6791 32.0848C75.2496 31.4607 76.158 31.1064 77.1055 31.3783C76.7039 32.8903 75.538 33.7595 74.0467 34.1736C73.9355 33.4464 74.2341 32.5751 74.6791 32.0848Z" fill="#DDA864"/>
</svg>
