<svg width="32" height="32" viewBox="0 0 32 32" fill="none" xmlns="http://www.w3.org/2000/svg">
<g clip-path="url(#clip0_167_1049)">
<path d="M26.6664 3.33333C26.6664 5.17467 25.1744 6.66667 23.3331 6.66667C21.4918 6.66667 19.9998 5.17467 19.9998 3.33333C19.9998 1.492 21.4918 0 23.3331 0C25.1744 0 26.6664 1.492 26.6664 3.33333ZM28.1051 23.46L31.8798 30.5907L29.5224 31.8387L26.0638 25.3053L17.8491 19.8213L18.8918 12.84L14.5424 18.256L12.4624 16.5867L17.7598 9.98933C18.7784 8.72667 20.2918 8.00267 21.9131 8.00267C21.9131 8.00267 23.9811 7.90133 24.7398 8.772C25.4984 9.64267 25.5224 10.6627 25.3651 11.808L25.1504 13.308L31.9411 17.1867L30.6184 19.5013L24.7438 16.1453L24.0798 20.7747L28.1051 23.4613V23.46ZM16.8384 32H19.5504L20.7518 24.8467L18.3531 23.2467L16.8384 32ZM3.99977 29.3333C3.99977 30.8067 5.1931 32 6.66643 32C8.13977 32 9.3331 30.8067 9.3331 29.3333C9.3331 27.86 8.13977 26.6667 6.66643 26.6667C5.1931 26.6667 3.99977 27.86 3.99977 29.3333ZM6.66643 24C8.10377 24 9.4051 24.5773 10.3651 25.5053L14.0318 20.752L9.87843 17.532C9.0851 16.9187 8.0971 16.652 7.1051 16.784C6.11043 16.916 5.22777 17.428 4.63443 18.212L0.750434 23.1773C-0.473566 24.7933 -0.166899 27.1187 1.43043 28.368C1.88643 25.8867 4.05577 24 6.66643 24Z" fill="#F9C06A"/>
</g>
<defs>
<clipPath id="clip0_167_1049">
<rect width="32" height="32" fill="white"/>
</clipPath>
</defs>
</svg>
