<svg width="29" height="29" viewBox="0 0 29 29" fill="none" xmlns="http://www.w3.org/2000/svg">
<g clip-path="url(#clip0_167_615)">
<path d="M21.75 14.5C20.4769 14.5015 19.2259 14.1673 18.1231 13.5312C17.0203 12.895 16.1047 11.9794 15.4686 10.8765C14.8326 9.77372 14.4985 8.52269 14.5 7.24958C14.5016 5.97646 14.8388 4.72626 15.4775 3.625H5.12575L5.075 3.19967C4.97087 2.31831 4.54703 1.50577 3.88381 0.916043C3.22059 0.326316 2.36407 0.000378011 1.47658 0L1.20833 0C0.887863 0 0.580519 0.127306 0.353913 0.353913C0.127306 0.580519 0 0.887864 0 1.20833C0 1.5288 0.127306 1.83615 0.353913 2.06275C0.580519 2.28936 0.887863 2.41667 1.20833 2.41667H1.47658C1.77254 2.41671 2.0582 2.52536 2.27937 2.72203C2.50053 2.9187 2.64183 3.1897 2.67646 3.48363L4.33913 17.6211C4.51174 19.0914 5.21816 20.4472 6.32431 21.431C7.43045 22.4149 8.85933 22.9584 10.3397 22.9583H22.9583C23.2788 22.9583 23.5861 22.831 23.8128 22.6044C24.0394 22.3778 24.1667 22.0705 24.1667 21.75C24.1667 21.4295 24.0394 21.1222 23.8128 20.8956C23.5861 20.669 23.2788 20.5417 22.9583 20.5417H10.3397C9.59161 20.5398 8.86241 20.3066 8.25212 19.8739C7.64184 19.4412 7.18036 18.8303 6.931 18.125H21.3355C22.7521 18.1251 24.1236 17.6274 25.2105 16.719C26.2973 15.8106 27.0305 14.5492 27.2817 13.1551L27.5693 11.5613C26.8972 12.4726 26.0204 13.2133 25.0096 13.7237C23.9989 14.2341 22.8823 14.5 21.75 14.5Z" fill="#3B2919"/>
<path d="M8.45817 29.0003C9.79286 29.0003 10.8748 27.9183 10.8748 26.5837C10.8748 25.249 9.79286 24.167 8.45817 24.167C7.12348 24.167 6.0415 25.249 6.0415 26.5837C6.0415 27.9183 7.12348 29.0003 8.45817 29.0003Z" fill="#3B2919"/>
<path d="M20.5417 29.0003C21.8764 29.0003 22.9583 27.9183 22.9583 26.5837C22.9583 25.249 21.8764 24.167 20.5417 24.167C19.207 24.167 18.125 25.249 18.125 26.5837C18.125 27.9183 19.207 29.0003 20.5417 29.0003Z" fill="#3B2919"/>
<path d="M18.1248 8.45866H20.5415V10.8753C20.5415 11.1958 20.6688 11.5031 20.8954 11.7297C21.122 11.9564 21.4294 12.0837 21.7498 12.0837C22.0703 12.0837 22.3777 11.9564 22.6043 11.7297C22.8309 11.5031 22.9582 11.1958 22.9582 10.8753V8.45866H25.3748C25.6953 8.45866 26.0027 8.33135 26.2293 8.10475C26.4559 7.87814 26.5832 7.5708 26.5832 7.25033C26.5832 6.92986 26.4559 6.62251 26.2293 6.39591C26.0027 6.1693 25.6953 6.04199 25.3748 6.04199H22.9582V3.62533C22.9582 3.30486 22.8309 2.99751 22.6043 2.7709C22.3777 2.5443 22.0703 2.41699 21.7498 2.41699C21.4294 2.41699 21.122 2.5443 20.8954 2.7709C20.6688 2.99751 20.5415 3.30486 20.5415 3.62533V6.04199H18.1248C17.8044 6.04199 17.497 6.1693 17.2704 6.39591C17.0438 6.62251 16.9165 6.92986 16.9165 7.25033C16.9165 7.5708 17.0438 7.87814 17.2704 8.10475C17.497 8.33135 17.8044 8.45866 18.1248 8.45866Z" fill="#3B2919"/>
</g>
<defs>
<clipPath id="clip0_167_615">
<rect width="29" height="29" fill="white"/>
</clipPath>
</defs>
</svg>
